<?xml version="1.0" encoding="UTF-8" standalone="no"?>
<svg
   version="1.1"
   id="svg2"
   width="400"
   height="210"
   viewBox="0 0 400 210"
   sodipodi:docname="vdr-logo.svg"
   inkscape:version="1.1.1 (3bf5ae0d25, 2021-09-20, custom)"
   xmlns:inkscape="http://www.inkscape.org/namespaces/inkscape"
   xmlns:sodipodi="http://sodipodi.sourceforge.net/DTD/sodipodi-0.dtd"
   xmlns:xlink="http://www.w3.org/1999/xlink"
   xmlns="http://www.w3.org/2000/svg"
   xmlns:svg="http://www.w3.org/2000/svg"
   xmlns:rdf="http://www.w3.org/1999/02/22-rdf-syntax-ns#"
   xmlns:cc="http://creativecommons.org/ns#"
   xmlns:dc="http://purl.org/dc/elements/1.1/">
  <title
     id="title1496">VDR meets Docker</title>
  <metadata
     id="metadata8">
    <rdf:RDF>
      <cc:Work
         rdf:about="">
        <dc:format>image/svg+xml</dc:format>
        <dc:type
           rdf:resource="http://purl.org/dc/dcmitype/StillImage" />
        <cc:license
           rdf:resource="http://creativecommons.org/licenses/by-nc-sa/4.0/" />
        <dc:title>VDR meets Docker</dc:title>
        <dc:date>03.01.2022</dc:date>
      </cc:Work>
      <cc:License
         rdf:about="http://creativecommons.org/licenses/by-nc-sa/4.0/">
        <cc:permits
           rdf:resource="http://creativecommons.org/ns#Reproduction" />
        <cc:permits
           rdf:resource="http://creativecommons.org/ns#Distribution" />
        <cc:requires
           rdf:resource="http://creativecommons.org/ns#Notice" />
        <cc:requires
           rdf:resource="http://creativecommons.org/ns#Attribution" />
        <cc:prohibits
           rdf:resource="http://creativecommons.org/ns#CommercialUse" />
        <cc:permits
           rdf:resource="http://creativecommons.org/ns#DerivativeWorks" />
        <cc:requires
           rdf:resource="http://creativecommons.org/ns#ShareAlike" />
      </cc:License>
    </rdf:RDF>
  </metadata>
  <defs
     id="defs6">
    <linearGradient
       inkscape:collect="always"
       id="linearGradient957">
      <stop
         style="stop-color:#000000;stop-opacity:0.25"
         offset="0"
         id="stop953" />
      <stop
         style="stop-color:#000000;stop-opacity:0;"
         offset="1"
         id="stop955" />
    </linearGradient>
    <linearGradient
       inkscape:collect="always"
       xlink:href="#linearGradient957"
       id="linearGradient959"
       x1="373.73633"
       y1="219.11525"
       x2="373.73633"
       y2="-43.143448"
       gradientUnits="userSpaceOnUse"
       gradientTransform="translate(0.5)" />
    <linearGradient
       id="lg"
       y1="9.90843"
       x2="25.431995"
       x1="34.76569"
       y2="28.426884"
       gradientTransform="scale(0.9319351,1.0730361)"
       gradientUnits="userSpaceOnUse">
      <stop
         stop-color="#fff"
         stop-opacity="0"
         offset="0"
         id="stop882" />
      <stop
         stop-color="#fff"
         stop-opacity=".27451"
         offset="1"
         id="stop884" />
    </linearGradient>
  </defs>
  <sodipodi:namedview
     pagecolor="#ffffff"
     bordercolor="#666666"
     borderopacity="1"
     objecttolerance="10"
     gridtolerance="10"
     guidetolerance="10"
     inkscape:pageopacity="0"
     inkscape:pageshadow="2"
     inkscape:window-width="640"
     inkscape:window-height="480"
     id="namedview4"
     showgrid="false"
     showguides="true"
     inkscape:guide-bbox="true"
     inkscape:snap-center="true"
     inkscape:current-layer="g10"
     inkscape:document-rotation="0"
     inkscape:snap-object-midpoints="true"
     inkscape:snap-bbox="true"
     inkscape:bbox-nodes="true"
     inkscape:snap-smooth-nodes="true"
     inkscape:snap-global="false"
     inkscape:object-paths="false"
     inkscape:snap-intersection-paths="false"
     inkscape:pagecheckerboard="0">
    <sodipodi:guide
       position="103.29688,46.06445"
       orientation="-0.93259501,0.36092457"
       id="guide843" />
    <sodipodi:guide
       position="27.747871,187.92276"
       orientation="0,-1"
       id="guide847" />
    <sodipodi:guide
       position="148.26828,46.063771"
       orientation="0,-1"
       id="guide850" />
    <sodipodi:guide
       position="92.972656,61.55273"
       orientation="-0.94117617,0.33791629"
       id="guide859" />
    <sodipodi:guide
       position="148.10315,187.92276"
       orientation="1,0"
       id="guide23" />
    <sodipodi:guide
       position="167.10315,205.03853"
       orientation="1,0"
       id="guide27" />
    <sodipodi:guide
       position="167.10315,62.06376"
       orientation="0,-1"
       id="guide31" />
    <sodipodi:guide
       position="361.69922,109.55469"
       orientation="0,-1"
       id="guide864" />
    <sodipodi:guide
       position="350.21385,46.063771"
       orientation="1,0"
       id="guide877" />
  </sodipodi:namedview>
  <g
     inkscape:groupmode="layer"
     inkscape:label="Image"
     id="g10">
    <path
       id="path951"
       style="display:inline;opacity:1;fill:url(#linearGradient959);fill-opacity:1;stroke:none;stroke-width:2.3;stroke-linecap:round;stroke-linejoin:round;stroke-dashoffset:3.40199"
       inkscape:label="VDR"
       d="m 227.93945,25 c 9.13966,2.899632 17.34683,8.47898 24.05664,16 h 67.27148 c 12.8438,0 23.1836,10.184597 23.1836,22.835937 v 0.69336 c 0,12.651341 -10.33979,22.837892 -23.1836,22.83789 h -48.9707 c 0.0984,1.678584 0.16602,3.367656 0.16602,5.076172 v 6.970704 c 0,1.326997 -0.0361,2.643897 -0.0957,3.953127 h 30.62891 c 19.27609,10.33527 33.99424,40.78782 50.46875,63.49023 h 22.77149 c -16.47452,-22.70241 -31.19266,-53.15496 -50.46876,-63.49024 21.70781,0 39.1836,-17.475791 39.1836,-39.183586 C 362.95118,42.475798 345.4754,25 323.76758,25 Z M 29,25 83.900391,166.85743 H 104.54883 L 144.28515,64.183594 C 149.35523,51.082983 153.25776,41 168.35547,41 h 36.48242 6.20312 c 20.21126,0 36.48242,23.294783 36.48242,52.230469 v 5.396484 c 0,28.935687 -16.27116,52.230477 -36.48242,52.230477 h -6.20312 -36.48242 V 44 c -6.881,0 -10.48042,2.018259 -13.5,5.609375 -2.09455,2.490991 -3.80324,5.923002 -5.5,9.96875 V 166.85743 h 54.77148 9.31445 c 30.34383,0 54.77149,-30.07922 54.77149,-67.443367 V 92.443359 C 268.21289,55.079214 243.78523,25 213.4414,25 h -9.31445 -35.77148 c -19,0 -32.31151,9.891109 -37.08399,23.183594 L 94.224609,151.36915 48.853515,25 Z" />
    <path
       id="rect34"
       style="display:inline;opacity:1;fill:#3c0e7b;fill-opacity:1;stroke:none;stroke-width:2.3;stroke-linecap:round;stroke-linejoin:round;stroke-dashoffset:3.40199"
       inkscape:label="VDR"
       d="M 167.10352,163.93623 V 41.078125 c -6.881,0 -10.48042,2.018259 -13.5,5.609375 -2.09455,2.490991 -3.80324,5.923002 -5.5,9.96875 v 107.2793 z"
       sodipodi:nodetypes="ccsccc" />
    <g
       id="g1032"
       transform="matrix(0.2707008,0,0,0.2707008,153.58108,75.369555)"
       inkscape:label="Moby"
       style="display:inline">
      <path
         d="m 97.406,0.038227 c -1.5773,-0.061307 -3.1654,-0.049067 -4.7642,0.038127 -12.79,0.69707 -25.562,6.5823 -37.722,17.94 -12.16,11.358 -23.993,28.16 -36.004,51.672 -0.89555,1.7545 -1.0152,3.8038 -0.33002,5.6506 4.5324,12.221 12.863,25.050996 24.868,37.692996 -0.56649,-0.0251 -41.017,10.338 -43.011,14.064 -0.84999,1.5879 -0.23821,19.259 -0.090985,21.452 5.2276,77.854 66.593,132.5 135.659995,147.58 68.741,15.014 146.48001,-9.5256 184.21001,-88.091 14.461,-17.218 29.934,-19.753 45.173,-23.637 7.6855,-1.9588 15.467,-4.1742 22.038,-9.6956 6.571,-5.5214 11.016,-14.197 12.52,-26.248 0.38031,-3.0497 -1.2612,-5.9937 -4.0555,-7.2732 -16.94,-7.7533 -31.612,-7.9221 -43.276,-4.1126 -4.0795,1.3324 -7.64191,3.1803 -10.982,5.1725 0.47599,-5.8426 0.2835,-11.603 -0.87795,-17.108 -2.4227,-11.483 -9.5478,-21.956 -21.629,-27.294996 -1.9732,-0.87219 -4.2317,-0.7804 -6.1351,0.22636 l 9.594,-9.6596 -27.43701,-35.038 -47.43099,-14.377 -14.631,13.368 -42.125,-8.7055 -12.43101,14.458 c -5.1754,-6.1904 -10.35599,-12.169 -15.55799,-17.76 -20.61501,-22.159 -41.908,-39.399 -65.567005,-40.318 z m 164.54,96.924 35.85,16.410003 0.52889,-0.531 c -1.7025,3.2306 -2.8906,6.6263 -3.5795,10.034 -1.9187,9.4904 -0.83342,19.082 0.31521,27.764 1.1486,8.6824 2.3133,16.599 1.8194,21.469 -0.24697,2.4346 -0.82719,3.9275 -1.4555,4.7854 -0.35406,0.4834 -0.82042,0.88574 -1.4809,1.2545 -10.434,-4.6752 -20.936,-12.231 -31.412,-21.615 l 22.795,-21.972 -26.55,-33.946 z"
         color="#000000"
         fill="#022144"
         stroke-linecap="round"
         stroke-linejoin="round"
         stroke-width="1.0832"
         style="-inkscape-stroke:none;paint-order:stroke markers fill"
         id="path930" />
      <g
         transform="matrix(1.0832,0,0,1.0832,-422.54,-137.13)"
         id="g946">
        <g
           id="g942">
          <path
             transform="matrix(0.92323,0,0,0.92323,390.1,126.6)"
             d="m 46.256,115.93 c -0.02553,0.008 -10.183,3.153 -20.305,6.3613 -5.0607,1.6042 -10.111,3.2255 -13.883,4.4766 -3.7716,1.251 -6.2645,2.1326 -6.2051,2.2617 1.1024,2.61 2.3474,5.1718 3.7227,7.6738 1.3753,2.5021 2.8822,4.9451 4.5098,7.3144 1.6275,2.3694 3.3753,4.6649 5.2344,6.877 1.8591,2.2121 3.8284,4.3391 5.8984,6.3692 2.0701,2.03 4.2416,3.9637 6.502,5.7871 2.2603,1.8234 4.6091,3.5369 7.0391,5.1289 2.43,1.592 4.9406,3.0624 7.5195,4.3984 2.5789,1.336 5.2264,2.5384 7.9336,3.5938 2.7072,1.0553 5.4742,1.9629 8.2891,2.7129 1.4074,0.37499 2.8273,0.71183 4.2578,1.0059 1.4305,0.29402 2.8713,0.54588 4.3223,0.75586 1.4509,0.20997 2.912,0.37715 4.3809,0.5 1.4688,0.12284 2.9456,0.20175 4.4297,0.23437 1.4841,0.0326 2.9758,0.0197 4.4727,-0.041 1.4969,-0.0607 2.9989,-0.16912 4.5059,-0.32617 1.507,-0.15706 3.0187,-0.36262 4.5332,-0.61915 1.5145,-0.25652 3.0313,-0.56475 4.5508,-0.92382 1.5195,-0.35908 3.0406,-0.76967 4.5625,-1.2344 1.5219,-0.46471 3.0447,-0.98321 4.5664,-1.5566 1.5217,-0.57339 3.0436,-1.2015 4.5625,-1.8867 1.5189,-0.68523 3.0353,-1.4264 4.5488,-2.2266 1.5135,-0.8002 3.0237,-1.66 4.5293,-2.5781 1.5056,-0.91809 3.0069,-1.8945 4.502,-2.9336 -4.2887,-1.8535 -8.4537,-3.7553 -12.492,-5.6992 -4.0385,-1.944 -7.9516,-3.9305 -11.74,-5.9551 -3.7886,-2.0246 -7.4511,-4.0882 -10.99,-6.1836 -3.5389,-2.0954 -6.9542,-4.2226 -10.244,-6.3789 -3.2899,-2.1563 -6.455,-4.3413 -9.4961,-6.5488 -3.0411,-2.2075 -5.9574,-4.4386 -8.75,-6.6875 -2.7926,-2.2489 -5.4615,-4.5145 -8.0059,-6.7949 -2.5444,-2.2804 -4.9652,-4.5748 -7.2617,-6.877 z"
             fill="#3a0c20"
             style="paint-order:stroke markers fill"
             id="path932" />
          <path
             d="m 443.19,260.5 c -9.3306,-0.32908 -19.969,2.2236 -32.033,8.9863 18.686,19.793 47.355,30.768 75.967,20.893 -9.1899,-14.474 -23.399,-29.155 -43.934,-29.879 z"
             fill="#ef7b87"
             id="path934" />
          <path
             d="m 479.77,133.14 c -21.415,-0.91208 -43.319,15.541 -66.416,60.756 10.26,27.665 41.637,56.323 98.227,86.668 -1.272,1.6097 -2.4694,3.3673 -3.5859,5.2539 -1.1166,1.8866 -2.1525,3.902 -3.0977,6.0293 -0.94514,2.1273 -1.8008,4.3655 -2.5586,6.6973 -0.7578,2.3317 -1.4181,4.7578 -1.9727,7.2578 -0.55451,2.5 -1.0026,5.075 -1.3379,7.707 -0.33528,2.6321 -0.55808,5.3209 -0.6582,8.0488 -0.10012,2.7279 -0.0787,5.4936 0.0723,8.2812 0.15099,2.7876 0.43156,5.5972 0.84961,8.4082 0.41805,2.811 0.97473,5.6236 1.6758,8.4219 0.61323,2.4478 1.358,4.8809 2.1992,7.293 -0.84138,-2.4125 -1.5859,-4.8447 -2.1992,-7.293 -0.701,-2.7983 -1.2578,-5.6108 -1.6758,-8.4219 -0.418,-2.8111 -0.69865,-5.6206 -0.84961,-8.4082 -0.15097,-2.7876 -0.17241,-5.5533 -0.0723,-8.2812 0.10014,-2.7279 0.3229,-5.4168 0.6582,-8.0488 0.33531,-2.6321 0.78337,-5.207 1.3379,-7.707 0.55453,-2.5 1.2148,-4.9261 1.9727,-7.2578 0.75781,-2.3317 1.6134,-4.57 2.5586,-6.6973 0.94515,-2.1272 1.9811,-4.1427 3.0977,-6.0293 1.1166,-1.8866 2.3139,-3.6442 3.5859,-5.2539 -24.924,19.728 -77.734,40.164 -114.67,-17.256 5.1767,77.083 72.767,128.41 142.9,133.65 5e-4,2.8e-4 10e-4,-2.7e-4 0.002,0 54.85,4.0961 111.25,-19.995 140.56,-82.051 29.548,-35.748 67.505,-11.858 72.52,-52.047 -28.878,-13.218 -46.041,0.19993 -57.084,10.832 6.4339,-21.041 4.8731,-42.6 -13.711,-50.812 -32.84,18.038 4.7683,68.735 -20.945,75.234 -66.695,-27.192 -122.18,-162.45 -181.38,-164.97 z m 24.201,223.02 c 0.896,2.3522 1.8828,4.6832 3.0117,6.9707 -1.1287,-2.287 -2.1159,-4.619 -3.0117,-6.9707 z m 5.1055,10.926 c 1.4783,2.608 3.1224,5.1545 4.9394,7.623 1.8165,2.4678 3.8075,4.8582 5.9785,7.1504 -2.1717,-2.2928 -4.1615,-4.6819 -5.9785,-7.1504 -1.817,-2.4685 -3.4612,-5.015 -4.9394,-7.623 z"
             fill="#2496ed"
             id="path936" />
          <path
             d="m 396.91,263.31 c 5.1767,77.083 72.767,128.41 142.9,133.65 -50.053,-27.124 -48.579,-90.638 -28.227,-116.39 -24.924,19.728 -77.734,40.164 -114.67,-17.256 z"
             fill="#92cbf6"
             id="path938" />
          <path
             d="m 557.95,248.62 c -5.8139,-0.35346 -11.525,1.2393 -16.248,4.5312 -11.849,8.2608 -14.548,24.865 -6.0274,37.086 8.5201,12.22 25.032,15.431 36.881,7.1699 11.848,-8.2608 14.547,-24.863 6.0273,-37.084 -4.7961,-6.8793 -12.422,-11.205 -20.633,-11.703 z"
             fill="#022144"
             style="paint-order:stroke markers fill"
             id="path940" />
        </g>
        <path
           transform="matrix(0.92323,0,0,0.92323,390.1,126.6)"
           d="m 180.22,139.28 c -4.8803,-0.16765 -9.643,1.2299 -13.605,3.9922 -6.3076,4.4276 -9.892,11.834 -9.5352,19.703 0.2165,-0.57379 0.47547,-1.1283 0.77539,-1.6602 4.0328,-6.9838 14.214,-8.6541 22.74,-3.7305 8.5261,4.9228 12.169,14.575 8.1367,21.559 -2.2384,3.8474 -6.4983,6.2406 -11.57,6.5 5.8008,0.93712 11.674,-0.37509 16.434,-3.6719 10.36,-7.2236 12.72,-21.741 5.2715,-32.428 -4.3179,-6.194 -11.25,-10.01 -18.646,-10.264 z"
           fill="#ffffff"
           style="paint-order:stroke markers fill"
           id="path944" />
      </g>
      <g
         transform="matrix(1.0832,0,0,1.0832,-422.54,-137.13)"
         id="g988">
        <g
           fill="#2496ed"
           id="g954">
          <path
             d="m 661.47,180.12 -18.99,21.277 22.252,25.217 18.531,-18.66 -21.793,-27.834"
             id="path948" />
          <path
             d="m 610.91,180.97 23.496,26.955 -17.408,20.066 -23.799,-24.82 z"
             id="path950" />
          <path
             d="m 626.67,222.19 -20.451,21.639 -0.0234,0.008 c 7.8346,9.1095 15.741,17.575 23.672,24.934 l 18.949,-18.264 z"
             id="path952" />
        </g>
        <g
           fill="#1755a8"
           id="g966">
          <path
             d="m 587.93,221.56 c 4.454,5.6061 8.9194,11.164 13.412,16.549 0.85804,1.0284 1.7181,2.0418 2.5781,3.0566 l 0.0234,-0.01 9.791,-9.8887 z"
             id="path956" />
          <path
             d="m 569.59,198.34 c 4.6942,5.9221 9.3972,11.916 14.109,17.889 h 0.002 l 26.855,10.102 -20.885,-21.779 z"
             id="path958" />
          <path
             d="m 567.71,170.75 -10.512,12.229 c 2.827,3.4212 5.6529,6.9212 8.4785,10.453 l 24.74,7.6152 16.637,-20.854 c 0.5939,-0.81537 0.32174,-1.291 -0.19922,-1.375 z"
             id="path960" />
          <path
             d="m 631.02,198.72 8.0254,9.2051 -4.7207,5.4414 23.561,10.785 -18.838,-21.35 -8.0274,-4.082"
             id="path962" />
          <path
             d="m 658.42,178.27 -18.693,20.947 -14.855,-7.5547 -13.154,-15.09 -2.2383,-0.71289 10.211,-9.3301 z"
             id="path964" />
        </g>
        <g
           fill="#1755a7"
           id="g986">
          <path
             d="m 663.62,190.18 -12.586,12.584 a 1.5,1.5 0 0 0 0,2.1211 1.5,1.5 0 0 0 2.1211,0 l 12.586,-12.584 a 1.5,1.5 0 0 0 0,-2.1211 1.5,1.5 0 0 0 -2.1211,0 z"
             color="#000000"
             style="-inkscape-stroke:none"
             id="path968" />
          <path
             d="m 668.74,197.29 -11.82,11.82 a 1.5,1.5 0 0 0 0,2.123 1.5,1.5 0 0 0 2.1211,0 l 11.82,-11.822 a 1.5,1.5 0 0 0 0,-2.1211 1.5,1.5 0 0 0 -2.1211,0 z"
             color="#000000"
             style="-inkscape-stroke:none"
             id="path970" />
          <path
             d="m 674.6,204.6 a 1.5,1.5 0 0 0 -1.0605,0.43945 l -10.568,10.57 a 1.5,1.5 0 0 0 0,2.1211 1.5,1.5 0 0 0 2.1211,0 l 10.568,-10.57 a 1.5,1.5 0 0 0 0,-2.1211 A 1.5,1.5 0 0 0 674.6,204.6 Z"
             color="#000000"
             style="-inkscape-stroke:none"
             id="path972" />
          <path
             d="m 614.97,191.41 a 1.5,1.5 0 0 0 -2.1172,0.13867 l -11.828,13.49 a 1.5,1.5 0 0 0 0.13868,2.1172 1.5,1.5 0 0 0 2.1172,-0.13868 l 11.828,-13.49 a 1.5,1.5 0 0 0 -0.13867,-2.1172 z"
             color="#000000"
             style="-inkscape-stroke:none"
             id="path974" />
          <path
             d="m 620.87,198.1 a 1.5,1.5 0 0 0 -2.1172,0.13867 l -10.893,12.424 a 1.5,1.5 0 0 0 0.14063,2.1172 1.5,1.5 0 0 0 2.1152,-0.13867 l 10.893,-12.424 A 1.5,1.5 0 0 0 620.86996,198.1 Z"
             color="#000000"
             style="-inkscape-stroke:none"
             id="path976" />
          <path
             d="m 626.62,204.81 a 1.5,1.5 0 0 0 -2.1172,0.13868 l -10.121,11.543 a 1.5,1.5 0 0 0 0.14063,2.1172 1.5,1.5 0 0 0 2.1152,-0.13867 l 10.121,-11.543 a 1.5,1.5 0 0 0 -0.13868,-2.1172 z"
             color="#000000"
             style="-inkscape-stroke:none"
             id="path978" />
          <path
             d="m 640.8,246.61 a 1.5,1.5 0 0 0 -2.1211,0.0176 l -10.68,10.863 a 1.5,1.5 0 0 0 0.0176,2.1211 1.5,1.5 0 0 0 2.1211,-0.0176 l 10.68,-10.863 A 1.5,1.5 0 0 0 640.8,246.61 Z"
             color="#000000"
             style="-inkscape-stroke:none"
             id="path980" />
          <path
             d="m 634.86,238.79 a 1.5,1.5 0 0 0 -1.0566,0.44727 l -11.512,11.711 a 1.5,1.5 0 0 0 0.0176,2.123 1.5,1.5 0 0 0 2.1211,-0.0195 l 11.514,-11.711 a 1.5,1.5 0 0 0 -0.0195,-2.1211 1.5,1.5 0 0 0 -1.0644,-0.42969 z"
             color="#000000"
             style="-inkscape-stroke:none"
             id="path982" />
          <path
             d="m 629.9,231.43 a 1.5,1.5 0 0 0 -1.0566,0.44727 l -12.838,13.059 a 1.5,1.5 0 0 0 0.0176,2.123 1.5,1.5 0 0 0 2.1211,-0.0195 l 12.838,-13.059 a 1.5,1.5 0 0 0 -0.0176,-2.1211 1.5,1.5 0 0 0 -1.0645,-0.42969 z"
             color="#000000"
             style="-inkscape-stroke:none"
             id="path984" />
        </g>
      </g>
      <path
         d="m 293.61,270.23 c -0.21411,-0.0292 -0.43113,0.0276 -0.60293,0.15867 -29.744,22.687 -53.429,34.645 -91.108,39.99 -0.44482,0.0633 -0.75343,0.47552 -0.68967,0.92027 0.0637,0.44381 0.47048,0.66464 0.91815,0.68966 35.2,1.9676 76.147,-20.736 91.865,-40.307 0.28085,-0.3497 0.42597,-0.7812 0.15443,-1.1382 -0.1305,-0.1715 -0.32383,-0.28393 -0.53735,-0.3131 z"
         color="#000000"
         fill="#022144"
         stroke-linecap="round"
         stroke-width="1.0832"
         style="display:none;-inkscape-stroke:none"
         id="path990" />
      <path
         d="m 226.07,319.53 c -0.28785,0.0408 -0.48755,0.30769 -0.44628,0.59548 0.0412,0.28717 0.30544,0.41722 0.59412,0.44627 22.755,2.2902 47.057,-9.9467 57.268,-24.467 0.16694,-0.23739 0.26054,-0.5478 0.1,-0.73646 -0.11447,-0.13449 -0.35259,-0.14813 -0.52967,-0.0135 -19.526,13.048 -38.047,20.633 -56.986,24.175 z"
         color="#000000"
         fill="#022144"
         stroke-linecap="round"
         stroke-width="0.70088"
         style="display:none;-inkscape-stroke:none"
         id="path992" />
    </g>
    <path
       id="path1131"
       style="display:inline;opacity:1;fill:#3c0e7b;fill-opacity:1;stroke:none;stroke-width:2.3;stroke-linecap:round;stroke-linejoin:round;stroke-dashoffset:3.40199"
       inkscape:label="VDR"
       d="m 226.6875,22.078125 c 9.13966,2.899632 17.34683,8.47898 24.05664,16 h 67.27148 c 12.8438,0 23.1836,10.184597 23.1836,22.835937 v 0.69336 c 0,12.651341 -10.33979,22.837892 -23.1836,22.83789 h -48.9707 c 0.0984,1.678584 0.16602,3.367656 0.16602,5.076172 v 6.970704 c 0,1.326992 -0.0361,2.6439 -0.0957,3.953122 h 30.62891 c 19.27609,10.33527 33.99424,40.78782 50.46875,63.49024 h 22.77149 c -16.47452,-22.70242 -31.19266,-53.15497 -50.46876,-63.49024 21.70781,0 39.1836,-17.475796 39.1836,-39.183591 0,-21.707796 -17.47578,-39.183594 -39.1836,-39.183594 z m -198.939453,0 54.900391,141.857425 H 103.29688 L 143.0332,61.261719 c 5.07008,-13.100611 8.97261,-23.183594 24.07032,-23.183594 h 36.48242 6.20312 c 20.21126,0 36.48242,23.294783 36.48242,52.230469 v 5.396484 c 0,28.935682 -16.27116,52.230472 -36.48242,52.230472 h -6.20312 -36.48242 l -19,16 h 54.77148 9.31445 c 30.34383,0 54.77149,-30.07922 54.77149,-67.443362 v -6.970704 c 0,-37.364145 -24.42766,-67.443359 -54.77149,-67.443359 H 202.875 167.10352 c -19,0 -32.31151,9.891109 -37.08399,23.183594 L 92.972656,148.44727 47.601562,22.078125 Z"
       sodipodi:nodetypes="ccsssscsscccccsscccccscssssccccsssscscccc" />
    <g
       id="g947"
       transform="matrix(0.10433523,0,0,0.10433523,88.245669,57.639394)"
       style="display:none;opacity:1"
       inkscape:label="tux">
      <path
         id="path839"
         d="m 1516.5176,713.64441 c -0.01,-0.01 -0.021,-0.021 -0.021,-0.03 -6.069,-6.85 -8.96,-19.55 -12.069,-33.08 -3.1009,-13.52 -6.5699,-28.1 -17.6699,-37.55 -0.021,-0.021 -0.051,-0.04 -0.07,-0.061 -2.2001,-1.92 -4.46,-3.539 -6.73,-4.89 -2.279,-1.35 -4.59,-2.45 -6.899,-3.32 15.43,-45.76 9.3799,-91.329 -6.2,-132.5 -19.1101,-50.54 -52.48,-94.569 -77.9701,-124.689 -28.5299,-35.99 -56.4309,-70.15 -55.8799,-120.61 0.849,-77.01 8.469,-219.819999 -127.051,-220.009999 -5.5101,-0.01 -11.2601,0.22 -17.25,0.7 -151.44,12.19 -111.2701,172.189999 -113.5201,225.759999 -2.77,39.18 -10.7099,70.06 -37.6599,108.36 -31.6501,37.64 -76.23005,98.57 -97.34005,162 -9.96,29.93 -14.7,60.439 -10.33,89.319 -1.37,1.23 -2.67,2.521 -3.92,3.841 -9.29,9.93 -16.16,21.949 -23.81,30.039 -7.15,7.141 -17.33,9.851 -28.53,13.86 -11.2,4.021 -23.49,9.94 -30.95,24.26 0,0 0,0.011 -0.01,0.011 -0.01,0.02 -0.02,0.05 -0.04,0.069 -3.51,6.55 -4.65,13.62 -4.65,20.79 0,6.63 0.98,13.351 1.97,19.82 2.06,13.46 4.15,26.189 1.38,34.81 -8.86,24.23 -10,40.98 -3.76,53.141 6.26,12.18 19.11,17.55 33.64,20.59 29.06,6.06 68.41,4.56 99.42,21 l 2.67,-5.03 -2.64,5.04 c 33.19995,17.36 66.85995,23.521 93.71005,17.39 19.48,-4.439 35.28,-16.039 43.3999,-33.88 21,-0.1 44.0501,-9 80.9701,-11.029 25.05,-2.021 56.34,8.899 92.33,6.899 0.94,3.9 2.301,7.66 4.1599,11.23 0.021,0.029 0.04,0.069 0.061,0.1 13.949,27.9 39.869,40.66 67.5,38.48 27.659,-2.181 57.069,-18.49 80.85,-46.78 l -4.36,-3.66 4.3909,3.62 c 22.6601,-27.48 60.27,-38.87 85.2201,-53.91 12.47,-7.52 22.58,-16.939 23.37,-30.62 0.778,-13.67 -7.252,-28.99 -25.712,-49.48 z"
         fill="#000000" />
      <g
         id="g2291"
         transform="translate(832.60755,35.904411)">
        <path
           fill="#D6A312"
           d="m 698.24,726.57 c -0.48,8.439 -6.59,14.71 -17.88,21.51 -22.561,13.61 -62.551,25.45 -88.08,56.38 -22.181,26.39 -49.221,40.88 -73.03,42.76 -23.809,1.88 -44.35,-8 -56.47,-32.31 l -0.021,-0.05 -0.029,-0.061 c -7.521,-14.3 -4.391,-36.85 1.939,-60.649 6.33,-23.79 15.43,-48.23 16.65,-68.08 v -0.061 c 1.279,-25.439 2.71,-47.66 6.979,-64.81 4.28,-17.15 11.01,-28.75 22.931,-35.28 0.56,-0.3 1.109,-0.59 1.659,-0.86 1.351,22.03 12.261,44.511 31.54,49.37 21.101,5.561 51.511,-12.54 64.351,-27.31 2.569,-0.101 5.069,-0.23 7.5,-0.29 11.27,-0.271 20.71,0.38 30.37,8.82 l 0.029,0.029 0.03,0.021 c 7.42,6.29 10.95,18.17 14.01,31.47 3.061,13.311 5.5,27.8 14.681,38.13 l 0.01,0.01 0.01,0.021 c 17.641,19.57 23.311,32.79 22.821,41.24 z"
           id="path841"
           style="fill:#ffcc00;fill-opacity:1" />
        <path
           fill="#D6A312"
           d="m 269.49,788.95 -0.01,0.06 v 0.07 c -2.04,26.74 -17.12,41.3 -40.28,46.59 -23.14,5.29 -54.53,0.021 -85.87,-16.37 -0.01,0 -0.02,-0.01 -0.03,-0.01 C 108.62,800.92 67.37,802.75 40.9,797.22 27.67,794.46 19.03,790.3 15.07,782.58 c -3.96,-7.73 -4.05,-21.2 4.37,-44.17 l 0.04,-0.101 0.03,-0.1 c 4.17,-12.85 1.08,-26.91 -0.94,-40.11 -2.02,-13.189 -3.01,-25.199 1.5,-33.56 l 0.04,-0.08 c 5.77,-11.12 14.23,-15.1 24.73,-18.86 10.51,-3.77 22.96,-6.729 32.79,-16.59 l 0.06,-0.05 0.05,-0.05 c 9.09,-9.59 15.92,-21.62 23.91,-30.15 6.74,-7.2 13.49,-11.97 23.66,-12.04 0.12,0.011 0.23,0.011 0.35,0 1.78,0.011 3.67,0.16 5.67,0.471 13.5,2.04 25.27,11.479 36.61,26.859 l 32.74,59.67 0.01,0.03 0.02,0.02 c 8.71,18.19 27.11,38.2 42.7,58.61 15.59,20.401 27.65,40.891 26.08,56.571 z"
           id="path843"
           style="display:inline;fill:#ffcc00;fill-opacity:1"
           inkscape:label="fl" />
        <path
           fill="#D6A312"
           d="m 432.77,232.69 c -2.63,-5.15 -8,-10.05 -17.14,-13.8 l -0.02,-0.01 -0.03,-0.01 c -19.01,-8.14 -27.26,-8.72 -37.87,-15.62 -17.27,-11.1 -31.54,-14.99 -43.4,-14.94 -6.21,0.02 -11.76,1.12 -16.73,2.84 -14.45,4.97 -24.04,15.34 -30.05,21.03 l -0.01,0.01 c 0,0.01 -0.01,0.01 -0.01,0.02 -1.18,1.12 -2.7,2.14 -6.38,4.84 -3.71,2.71 -9.27,6.79 -17.27,12.79 -7.11,5.33 -9.42,12.27 -6.96,20.4 2.45,8.13 10.29,17.51 24.63,25.62 l 0.02,0.02 0.03,0.01 c 8.9,5.23 14.98,12.28 21.96,17.89 3.49,2.8 7.16,5.3 11.58,7.19 4.42,1.89 9.58,3.17 16.04,3.55 15.16,0.88 26.32,-3.67 36.17,-9.31 9.87,-5.63 18.229,-12.52 27.82,-15.63 l 0.02,-0.01 0.021,-0.01 c 19.659,-6.14 33.68,-18.51 38.069,-30.26 2.2,-5.88 2.13,-11.46 -0.49,-16.61 z"
           id="path845"
           style="fill:#ffcc00;fill-opacity:1" />
        <path
           fill="#000000"
           d="m 417.6,243.82 c -2.909,0.17 -7.949,2.26 -13.93,5.61 -5.99,3.34 -13.03,7.8 -20.78,12.28 -15.51,8.95 -33.91,18.04 -53.35,18.04 -19.43,0 -34.78,-8.98 -45.82,-17.73 -5.52,-4.37 -10,-8.72 -13.38,-11.88 -1.69,-1.58 -3.11,-2.86 -4.13,-3.65 -0.63,-0.49 -1.17,-0.68 -1.28,-0.74 -0.07,-0.05 0.1,0 0.27,-1.64 l 0.11,-4.9 c 2.33,0 3.47,1.07 4.86,2.14 1.39,1.08 2.89,2.45 4.61,4.06 3.44,3.22 7.75,7.39 12.97,11.53 10.44,8.27 24.36,16.32 41.79,16.32 17.4,0 34.9,-8.39 50.11,-17.17 7.6,-4.39 14.619,-8.84 20.859,-12.33 6.24,-3.48 11.601,-6.11 16.71,-6.42 z"
           id="path847" />
        <path
           fill="#ffffff"
           d="m 622.39,595.47 c -2.17,-0.08 -4.31,-0.069 -6.39,-0.02 -0.19,0.01 -0.38,0.01 -0.58,0.01 5.37,-16.96 -6.51,-29.47 -38.17,-43.79 -32.83,-14.439 -58.99,-13.01 -63.41,16.29 -0.28,1.53 -0.51,3.1 -0.68,4.68 -2.46,0.86 -4.92,1.94 -7.4,3.29 -15.41,8.44 -23.83,23.74 -28.51,42.521 -4.67,18.76 -6.02,41.43 -7.3,66.92 0,0.01 0,0.01 0,0.02 -0.79,12.811 -6.07,30.15 -11.41,48.511 -53.78,38.369 -128.42,54.989 -191.8,11.729 -4.29,-6.79 -9.22,-13.52 -14.29,-20.16 -3.24,-4.239 -6.57,-8.45 -9.87,-12.609 6.5,0.01 12.03,-1.061 16.5,-3.08 5.56,-2.53 9.46,-6.57 11.4,-11.771 3.86,-10.39 -0.02,-25.05 -12.39,-41.8 -12.37,-16.74 -33.32,-35.63 -64.1,-54.51 0,0 0,0 0,-0.01 -22.62,-14.07 -35.26,-31.311 -41.18,-50.03 -5.93,-18.73 -5.1,-38.98 -0.53,-58.97 8.76,-38.37 31.26,-75.69 45.62,-99.11 3.86,-2.84 1.38,5.28 -14.54,34.84 -14.26,27.021 -40.93,89.38 -4.42,138.061 0.98,-34.641 9.25,-69.971 23.14,-103.021 20.23,-45.85 62.54,-125.38 65.9,-188.76 1.74,1.26 7.69,5.28 10.34,6.79 0.01,0.01 0.01,0.01 0.02,0.01 7.76,4.57 13.59,11.25 21.14,17.32 7.57,6.08 17.02,11.33 31.3,12.16 1.37,0.08 2.71,0.12 4.02,0.12 14.72,0 26.2,-4.8 35.76,-10.27 10.391,-5.94 18.69,-12.52 26.561,-15.08 0.01,-0.01 0.02,-0.01 0.03,-0.01 16.63,-5.2 29.84,-14.4 37.359,-25.12 12.92,50.92 42.96,124.47 62.271,160.36 10.27,19.04 30.689,59.5 39.51,108.25 5.59,-0.171 11.75,0.64 18.34,2.329 23.07,-59.81 -19.56,-124.22 -39.06,-142.16 -7.87,-7.64 -8.25,-11.06 -4.34,-10.9 21.14,18.71 48.909,56.32 59.01,98.78 4.609,19.359 5.59,39.72 0.649,59.81 2.41,1 4.87,2.09 7.36,3.271 37.03,18.029 50.72,33.709 44.14,55.109 z"
           id="path849" />
        <path
           fill="#ffffff"
           d="m 434.51,174.03 c 0.08,10.09 -1.66,18.68 -5.49,27.45 -2.18,5 -4.689,9.2 -7.699,12.84 -1.021,-0.49 -2.08,-0.96 -3.181,-1.41 -3.81,-1.63 -7.18,-2.97 -10.199,-4.11 -3.021,-1.14 -5.7,-2.08 -8.131,-2.92 1.761,-2.13 3.23,-4.64 4.521,-7.79 1.96,-4.75 2.92,-9.39 3.1,-14.92 0,-0.22 0.07,-0.41 0.07,-0.67 0.11,-5.3 -0.59,-9.83 -2.14,-14.47 -1.62,-4.87 -3.681,-8.37 -6.66,-11.28 -2.99,-2.91 -5.97,-4.23 -9.55,-4.35 -0.17,-0.01 -0.33,-0.01 -0.5,-0.01 -3.36,0.01 -6.28,1.17 -9.301,3.69 -3.17,2.65 -5.52,6.04 -7.479,10.76 -1.95,4.72 -2.91,9.4 -3.101,14.96 -0.029,0.22 -0.029,0.41 -0.029,0.63 -0.07,3.06 0.13,5.86 0.6,8.58 -6.88,-3.43 -13.36,-5.77 -19.44,-7.22 -0.35,-2.63 -0.55,-5.34 -0.61,-8.18 v -0.77 c -0.11,-10.06 1.54,-18.69 5.41,-27.45 3.87,-8.77 8.66,-15.07 15.399,-20.2 6.75,-5.12 13.381,-7.47 21.23,-7.55 h 0.37 c 7.68,0 14.25,2.26 21,7.15 6.85,4.98 11.79,11.2 15.77,19.9 3.9,8.48 5.78,16.77 5.971,26.6 -10e-4,0.26 -10e-4,0.48 0.069,0.74 z"
           id="path851" />
        <path
           fill="#ffffff"
           d="m 318.43,184.08 c -1.01,0.29 -1.99,0.6 -2.96,0.93 -5.5,1.9 -10.35,4.48 -14.57,7.27 0.41,-2.92 0.47,-5.88 0.15,-9.19 -0.03,-0.18 -0.03,-0.33 -0.03,-0.51 -0.44,-4.39 -1.37,-8.07 -2.92,-11.79 -1.65,-3.87 -3.5,-6.6 -5.93,-8.7 -2.2,-1.9 -4.28,-2.78 -6.58,-2.76 -0.23,0 -0.47,0.01 -0.71,0.03 -2.58,0.22 -4.72,1.48 -6.75,3.95 -2.02,2.46 -3.35,5.52 -4.31,9.58 -0.96,4.05 -1.21,8.03 -0.81,12.6 0,0.18 0.04,0.33 0.04,0.51 0.44,4.43 1.33,8.11 2.91,11.83 1.62,3.83 3.5,6.56 5.93,8.66 0.41,0.35 0.81,0.67 1.21,0.95 -2.52,1.95 -3.73,2.85 -5.81,4.37 -1.33,0.97 -2.91,2.13 -4.75,3.49 -4.01,-3.76 -7.14,-8.48 -9.88,-14.71 -3.24,-7.36 -4.97,-14.73 -5.49,-23.43 v -0.07 c -0.48,-8.7 0.37,-16.18 2.76,-23.92 2.4,-7.74 5.6,-13.34 10.25,-17.94 4.64,-4.61 9.32,-6.93 14.96,-7.22 0.44,-0.02 0.87,-0.03 1.3,-0.03 5.11,0.01 9.67,1.71 14.39,5.48 5.12,4.09 8.99,9.32 12.23,16.69 3.25,7.37 4.98,14.74 5.46,23.44 v 0.07 c 0.23,3.65 0.2,7.09 -0.09,10.42 z"
           id="path853" />
      </g>
      <rect
         style="opacity:1;fill:#3c0e7b;fill-opacity:1;stroke:none;stroke-width:57.5069;stroke-linecap:round;stroke-linejoin:round;stroke-miterlimit:4;stroke-dasharray:none;stroke-dashoffset:3.40199;stroke-opacity:1;paint-order:stroke fill markers"
         id="rect949"
         width="323.77884"
         height="51.472317"
         x="859.94574"
         y="865.44916" />
    </g>
  </g>
</svg>
