<?xml version="1.0" encoding="UTF-8"?>
<svg version="1.1" viewBox="0 0 512 512" xmlns="http://www.w3.org/2000/svg" xmlns:xlink="http://www.w3.org/1999/xlink">
	<path d="m497.88 220.83c-12.258-8.2511-44.469-11.775-67.886-5.4677-1.2628-23.325-13.289-42.982-35.292-60.131l-8.1454-5.4677-5.428 8.1982c-10.671 16.199-15.166 37.778-13.573 57.394 1.2562 12.086 5.4611 25.673 13.573 35.53-30.479 17.679-58.571 13.666-182.99 13.666h-192.09c-0.56198 28.093 3.9537 82.134 38.32 126.13 3.795 4.8594 7.9602 9.5602 12.476 14.09 27.94 27.98 70.155 48.495 133.29 48.555 96.303 0.0859 178.81-51.966 229-177.83 16.515 0.27107 60.112 2.962 81.447-38.267 0.5223-0.6942 5.428-10.935 5.428-10.935l-8.1322-5.4677z" fill="#1d63ed" stroke-width="1.2003"/>
	<path d="m131.4 195.13h-54.015v54.015h54.015zm69.784 0h-54.015v54.015h54.015zm69.784 0h-54.015v54.015h54.015zm69.784 0h-54.015v54.015h54.015zm-279.14 0h-54.015v54.015h54.015zm69.784-68.224h-54.015v54.015h54.015zm69.784 0h-54.015v54.015h54.015zm69.784 0h-54.015v54.015h54.015zm0-68.231h-54.015v54.015h54.015z" display="none" fill="#1d63ed" stroke-width="1.2003"/>
	<g id="tv" transform="matrix(2.7008 0 0 2.7008 211.56 53.276)">
		<path d="m9.1582 2.0001c-0.24313-0.00269-0.48122 0.074908-0.67579 0.22071-0.48548 0.36428-0.58497 1.0614-0.22071 1.5469l1.6758 2.2324h-5.7461c-1.1975 0-2.1914 0.99388-2.1914 2.1914v9.6172c0 1.1234 0.90308 1.9986 2 2.1113v0.95701c0 0.61807 0.50499 1.1238 1.123 1.1231h1.7539c0.61804 0 1.1238-0.50499 1.123-1.1231v-0.87694h7.998v0.87694c0 0.61804 0.50499 1.1238 1.1231 1.1231h1.7539c0.61826 0 1.1258-0.50477 1.125-1.1231v-0.95701c1.096-0.11361 2-0.98864 2-2.1113v-9.6172c0-1.1975-0.99589-2.1914-2.1934-2.1914h-5.7461l1.6758-2.2324c0.36426-0.48551 0.26477-1.1826-0.22071-1.5469-0.48566-0.36414-1.1828-0.26497-1.5469 0.22069l-1.9687 2.627-1.9707-2.627c-0.2058-0.27437-0.52813-0.43753-0.87109-0.4414z" fill="#1d63ed" stop-color="#000000" stroke-linecap="round" stroke-linejoin="round"/>
		<rect x="3.2149" y="7.2149" width="18" height="12" fill="#1d63ed"/>
		<path d="m5.1224 20.878h1.7552v-1.7552h-1.7552zm13.755-1.7552h-1.7552v1.7552h1.7552z" fill="none" stroke="#eda71d" stroke-linecap="round" stroke-linejoin="round" stroke-width="1.7552"/>
		<path d="m8.6309 2.4173a0.85959 0.85959 0 0 0-0.17187 1.2031l2.8535 3.8047a0.85968 0.85968 0 0 0 1.375 0l2.8535-3.8047a0.85959 0.85959 0 0 0-0.17188-1.2031 0.85959 0.85959 0 0 0-1.2031 0.17187l-2.166 2.8887-2.166-2.8887a0.85959 0.85959 0 0 0-1.2031-0.17187z" fill="#eda71d"/>
		<rect id="primary" x="3.2149" y="7.2149" width="17.57" height="11.57" rx=".97612" fill="none" stroke="#000" stroke-linecap="round" stroke-linejoin="round" stroke-width="1.9403"/>
	</g>
	<use transform="translate(-139.56 68.231)" xlink:href="#tv"/>
	<use transform="translate(-69.784 68.231)" xlink:href="#tv"/>
	<use transform="translate(1.7238e-6 68.231)" xlink:href="#tv"/>
	<use transform="translate(-209.35 136.45)" xlink:href="#tv"/>
	<use transform="translate(-139.56 136.45)" xlink:href="#tv"/>
	<use transform="translate(-69.784 136.45)" xlink:href="#tv"/>
	<use transform="translate(1.7238e-6 136.45)" xlink:href="#tv"/>
	<use transform="translate(69.784 136.45)" xlink:href="#tv"/>
	<path d="m47.858 290.52 42.336 109.39h15.922l30.641-79.176c3.9098-10.102 6.9207-17.878 18.563-17.878h32.914c15.585 0 28.134 17.963 28.134 40.277v4.1615c0 22.313-12.547 40.277-28.134 40.277h-32.914v-82.402c-5.3062 0-8.0819 1.5564-10.41 4.3255-1.6152 1.9209-2.9328 4.5674-4.2413 7.6872v82.727h49.418c23.399 0 42.238-23.195 42.238-52.008v-5.3754c0-28.813-18.838-52.008-42.238-52.008h-34.765c-14.651 0-24.917 7.6274-28.597 17.878l-28.568 79.57-34.987-97.448zm153.42 0c7.0479 2.236 13.377 6.5385 18.551 12.338h51.874c9.9044 0 17.879 7.8537 17.879 17.61v0.53468c0 9.7559-7.9749 17.611-17.879 17.611h-37.763c0.0759 1.2944 0.12953 2.5969 0.12953 3.9144v5.3754c0 1.0233-0.0279 2.0388-0.0738 3.0484h23.619c14.865 7.9699 26.214 31.452 38.919 48.959h17.56c-12.704-17.507-24.054-40.989-38.919-48.959 16.74 0 30.216-13.476 30.216-30.216 0-16.74-13.476-30.216-30.216-30.216z" fill="#eda71d" stroke-width="1.2003"/>
</svg>
