<?xml version="1.0" encoding="UTF-8"?>
<svg version="1.1" width="180" height="80" viewBox="0 0 180 80" xmlns="http://www.w3.org/2000/svg" xmlns:cc="http://creativecommons.org/ns#" xmlns:dc="http://purl.org/dc/elements/1.1/" xmlns:rdf="http://www.w3.org/1999/02/22-rdf-syntax-ns#" xmlns:xlink="http://www.w3.org/1999/xlink">
	<title>VDR meets Docker</title>
	<metadata>
		<rdf:RDF>
			<cc:Work rdf:about="">
				<dc:format>image/svg+xml</dc:format>
				<dc:type rdf:resource="http://purl.org/dc/dcmitype/StillImage"/>
				<cc:license rdf:resource="http://creativecommons.org/licenses/by-nc-sa/4.0/"/>
				<dc:title>VDR meets Docker</dc:title>
				<dc:date>03.01.2022</dc:date>
			</cc:Work>
			<cc:License rdf:about="http://creativecommons.org/licenses/by-nc-sa/4.0/">
				<cc:permits rdf:resource="http://creativecommons.org/ns#Reproduction"/>
				<cc:permits rdf:resource="http://creativecommons.org/ns#Distribution"/>
				<cc:requires rdf:resource="http://creativecommons.org/ns#Notice"/>
				<cc:requires rdf:resource="http://creativecommons.org/ns#Attribution"/>
				<cc:prohibits rdf:resource="http://creativecommons.org/ns#CommercialUse"/>
				<cc:permits rdf:resource="http://creativecommons.org/ns#DerivativeWorks"/>
				<cc:requires rdf:resource="http://creativecommons.org/ns#ShareAlike"/>
			</cc:License>
		</rdf:RDF>
	</metadata>
	<defs>
		<linearGradient id="linearGradient959" x1="373.74" x2="373.74" y1="219.12" y2="-43.143" gradientTransform="matrix(.51803 0 0 .51803 -13.861 -8.1621)" gradientUnits="userSpaceOnUse">
			<stop stop-opacity=".25" offset="0"/>
			<stop stop-opacity="0" offset="1"/>
		</linearGradient>
	</defs>
	<path d="m103.96 4.7886c4.7346 1.5021 8.9862 4.3924 12.462 8.2885h34.849c6.6535 0 12.01 5.2759 12.01 11.83v0.35918c0 6.5538-5.3563 11.831-12.01 11.831h-25.368c0.051 0.86956 0.086 1.7445 0.086 2.6296v3.611c0 0.68742-0.0187 1.3696-0.0496 2.0478h15.867c9.9856 5.354 17.61 21.129 26.144 32.89h11.796c-8.5343-11.761-16.159-27.536-26.144-32.89 11.245 0 20.298-9.053 20.298-20.298s-9.053-20.298-20.298-20.298zm-103.06 0 28.44 73.486h10.697l20.585-53.188c2.6265-6.7865 4.6481-12.01 12.469-12.01h22.112c10.47 0 18.899 12.067 18.899 27.057v2.7955c0 14.99-8.4289 27.057-18.899 27.057h-22.112v-55.355c-3.5646 0-5.4292 1.0455-6.9934 2.9058-1.085 1.2904-1.9702 3.0683-2.8492 5.1641v55.574h33.198c15.719 0 28.373-15.582 28.373-34.938v-3.611c0-19.356-12.654-34.938-28.373-34.938h-23.356c-9.8426 0-16.738 5.1239-19.211 12.01l-19.191 53.453-23.504-65.463z" fill="url(#linearGradient959)"/>
	<path d="m72.445 76.762v-63.644c-3.5646 0-5.4292 1.0455-6.9934 2.9058-1.085 1.2904-1.9702 3.0683-2.8492 5.1641v55.574z" fill="#ff9500"/>
	<g transform="matrix(.14023 0 0 .14023 65.44 30.882)">
		<path d="m97.406 0.038227c-1.5773-0.061307-3.1654-0.049067-4.7642 0.038127-12.79 0.69707-25.562 6.5823-37.722 17.94-12.16 11.358-23.993 28.16-36.004 51.672-0.89555 1.7545-1.0152 3.8038-0.33002 5.6506 4.5324 12.221 12.863 25.051 24.868 37.693-0.56649-0.0251-41.017 10.338-43.011 14.064-0.84999 1.5879-0.23821 19.259-0.090985 21.452 5.2276 77.854 66.593 132.5 135.66 147.58 68.741 15.014 146.48-9.5256 184.21-88.091 14.461-17.218 29.934-19.753 45.173-23.637 7.6855-1.9588 15.467-4.1742 22.038-9.6956s11.016-14.197 12.52-26.248c0.38031-3.0497-1.2612-5.9937-4.0555-7.2732-16.94-7.7533-31.612-7.9221-43.276-4.1126-4.0795 1.3324-7.6419 3.1803-10.982 5.1725 0.47599-5.8426 0.2835-11.603-0.87795-17.108-2.4227-11.483-9.5478-21.956-21.629-27.295-1.9732-0.87219-4.2317-0.7804-6.1351 0.22636l9.594-9.6596-27.437-35.038-47.431-14.377-14.631 13.368-42.125-8.7055-12.431 14.458c-5.1754-6.1904-10.356-12.169-15.558-17.76-20.615-22.159-41.908-39.399-65.567-40.318zm164.54 96.924 35.85 16.41 0.52889-0.531c-1.7025 3.2306-2.8906 6.6263-3.5795 10.034-1.9187 9.4904-0.83342 19.082 0.31521 27.764 1.1486 8.6824 2.3133 16.599 1.8194 21.469-0.24697 2.4346-0.82719 3.9275-1.4555 4.7854-0.35406 0.4834-0.82042 0.88574-1.4809 1.2545-10.434-4.6752-20.936-12.231-31.412-21.615l22.795-21.972-26.55-33.946z" color="#000000" fill="#022144"/>
		<g transform="matrix(1.0832,0,0,1.0832,-422.54,-137.13)">
			<path transform="matrix(.92323 0 0 .92323 390.1 126.6)" d="m46.256 115.93c-0.02553 8e-3 -10.183 3.153-20.305 6.3613-5.0607 1.6042-10.111 3.2255-13.883 4.4766-3.7716 1.251-6.2645 2.1326-6.2051 2.2617 1.1024 2.61 2.3474 5.1718 3.7227 7.6738 1.3753 2.5021 2.8822 4.9451 4.5098 7.3144 1.6275 2.3694 3.3753 4.6649 5.2344 6.877s3.8284 4.3391 5.8984 6.3692c2.0701 2.03 4.2416 3.9637 6.502 5.7871 2.2603 1.8234 4.6091 3.5369 7.0391 5.1289s4.9406 3.0624 7.5195 4.3984 5.2264 2.5384 7.9336 3.5938c2.7072 1.0553 5.4742 1.9629 8.2891 2.7129 1.4074 0.37499 2.8273 0.71183 4.2578 1.0059 1.4305 0.29402 2.8713 0.54588 4.3223 0.75586 1.4509 0.20997 2.912 0.37715 4.3809 0.5 1.4688 0.12284 2.9456 0.20175 4.4297 0.23437 1.4841 0.0326 2.9758 0.0197 4.4727-0.041s2.9989-0.16912 4.5059-0.32617c1.507-0.15706 3.0187-0.36262 4.5332-0.61915 1.5145-0.25652 3.0313-0.56475 4.5508-0.92382 1.5195-0.35908 3.0406-0.76967 4.5625-1.2344 1.5219-0.46471 3.0447-0.98321 4.5664-1.5566s3.0436-1.2015 4.5625-1.8867c1.5189-0.68523 3.0353-1.4264 4.5488-2.2266s3.0237-1.66 4.5293-2.5781c1.5056-0.91809 3.0069-1.8945 4.502-2.9336-4.2887-1.8535-8.4537-3.7553-12.492-5.6992-4.0385-1.944-7.9516-3.9305-11.74-5.9551-3.7886-2.0246-7.4511-4.0882-10.99-6.1836s-6.9542-4.2226-10.244-6.3789c-3.2899-2.1563-6.455-4.3413-9.4961-6.5488s-5.9574-4.4386-8.75-6.6875-5.4615-4.5145-8.0059-6.7949-4.9652-4.5748-7.2617-6.877z" fill="#3a0c20"/>
			<path d="m443.19 260.5c-9.3306-0.32908-19.969 2.2236-32.033 8.9863 18.686 19.793 47.355 30.768 75.967 20.893-9.1899-14.474-23.399-29.155-43.934-29.879z" fill="#ef7b87"/>
			<path d="m479.77 133.14c-21.415-0.91208-43.319 15.541-66.416 60.756 10.26 27.665 41.637 56.323 98.227 86.668-1.272 1.6097-2.4694 3.3673-3.5859 5.2539-1.1166 1.8866-2.1525 3.902-3.0977 6.0293-0.94514 2.1273-1.8008 4.3655-2.5586 6.6973-0.7578 2.3317-1.4181 4.7578-1.9727 7.2578-0.55451 2.5-1.0026 5.075-1.3379 7.707-0.33528 2.6321-0.55808 5.3209-0.6582 8.0488s-0.0787 5.4936 0.0723 8.2812c0.15099 2.7876 0.43156 5.5972 0.84961 8.4082s0.97473 5.6236 1.6758 8.4219c0.61323 2.4478 1.358 4.8809 2.1992 7.293-0.84138-2.4125-1.5859-4.8447-2.1992-7.293-0.701-2.7983-1.2578-5.6108-1.6758-8.4219s-0.69865-5.6206-0.84961-8.4082c-0.15097-2.7876-0.17241-5.5533-0.0723-8.2812 0.10014-2.7279 0.3229-5.4168 0.6582-8.0488 0.33531-2.6321 0.78337-5.207 1.3379-7.707s1.2148-4.9261 1.9727-7.2578c0.75781-2.3317 1.6134-4.57 2.5586-6.6973 0.94515-2.1272 1.9811-4.1427 3.0977-6.0293s2.3139-3.6442 3.5859-5.2539c-24.924 19.728-77.734 40.164-114.67-17.256 5.1767 77.083 72.767 128.41 142.9 133.65 5e-4 2.8e-4 1e-3 -2.7e-4 2e-3 0 54.85 4.0961 111.25-19.995 140.56-82.051 29.548-35.748 67.505-11.858 72.52-52.047-28.878-13.218-46.041 0.19993-57.084 10.832 6.4339-21.041 4.8731-42.6-13.711-50.812-32.84 18.038 4.7683 68.735-20.945 75.234-66.695-27.192-122.18-162.45-181.38-164.97zm24.201 223.02c0.896 2.3522 1.8828 4.6832 3.0117 6.9707-1.1287-2.287-2.1159-4.619-3.0117-6.9707zm5.1055 10.926c1.4783 2.608 3.1224 5.1545 4.9394 7.623 1.8165 2.4678 3.8075 4.8582 5.9785 7.1504-2.1717-2.2928-4.1615-4.6819-5.9785-7.1504s-3.4612-5.015-4.9394-7.623z" fill="#2496ed"/>
			<path d="m396.91 263.31c5.1767 77.083 72.767 128.41 142.9 133.65-50.053-27.124-48.579-90.638-28.227-116.39-24.924 19.728-77.734 40.164-114.67-17.256z" fill="#92cbf6"/>
			<path d="m557.95 248.62c-5.8139-0.35346-11.525 1.2393-16.248 4.5312-11.849 8.2608-14.548 24.865-6.0274 37.086 8.5201 12.22 25.032 15.431 36.881 7.1699 11.848-8.2608 14.547-24.863 6.0273-37.084-4.7961-6.8793-12.422-11.205-20.633-11.703z" fill="#022144"/>
			<path transform="matrix(.92323 0 0 .92323 390.1 126.6)" d="m180.22 139.28c-4.8803-0.16765-9.643 1.2299-13.605 3.9922-6.3076 4.4276-9.892 11.834-9.5352 19.703 0.2165-0.57379 0.47547-1.1283 0.77539-1.6602 4.0328-6.9838 14.214-8.6541 22.74-3.7305 8.5261 4.9228 12.169 14.575 8.1367 21.559-2.2384 3.8474-6.4983 6.2406-11.57 6.5 5.8008 0.93712 11.674-0.37509 16.434-3.6719 10.36-7.2236 12.72-21.741 5.2715-32.428-4.3179-6.194-11.25-10.01-18.646-10.264z" fill="#fff"/>
			<g fill="#2496ed">
				<path d="m661.47 180.12-18.99 21.277 22.252 25.217 18.531-18.66-21.793-27.834"/>
				<path d="m610.91 180.97 23.496 26.955-17.408 20.066-23.799-24.82z"/>
				<path d="m626.67 222.19-20.451 21.639-0.0234 8e-3c7.8346 9.1095 15.741 17.575 23.672 24.934l18.949-18.264z"/>
			</g>
			<g fill="#1755a8">
				<path d="m587.93 221.56c4.454 5.6061 8.9194 11.164 13.412 16.549 0.85804 1.0284 1.7181 2.0418 2.5781 3.0566l0.0234-0.01 9.791-9.8887z"/>
				<path d="m569.59 198.34c4.6942 5.9221 9.3972 11.916 14.109 17.889h2e-3l26.855 10.102-20.885-21.779z"/>
				<path d="m567.71 170.75-10.512 12.229c2.827 3.4212 5.6529 6.9212 8.4785 10.453l24.74 7.6152 16.637-20.854c0.5939-0.81537 0.32174-1.291-0.19922-1.375z"/>
				<path d="m631.02 198.72 8.0254 9.2051-4.7207 5.4414 23.561 10.785-18.838-21.35-8.0274-4.082"/>
				<path d="m658.42 178.27-18.693 20.947-14.855-7.5547-13.154-15.09-2.2383-0.71289 10.211-9.3301z"/>
			</g>
			<g fill="#1755a7">
				<path d="m663.62 190.18-12.586 12.584a1.5 1.5 0 0 0 0 2.1211 1.5 1.5 0 0 0 2.1211 0l12.586-12.584a1.5 1.5 0 0 0 0-2.1211 1.5 1.5 0 0 0-2.1211 0z" color="#000000"/>
				<path d="m668.74 197.29-11.82 11.82a1.5 1.5 0 0 0 0 2.123 1.5 1.5 0 0 0 2.1211 0l11.82-11.822a1.5 1.5 0 0 0 0-2.1211 1.5 1.5 0 0 0-2.1211 0z" color="#000000"/>
				<path d="m674.6 204.6a1.5 1.5 0 0 0-1.0605 0.43945l-10.568 10.57a1.5 1.5 0 0 0 0 2.1211 1.5 1.5 0 0 0 2.1211 0l10.568-10.57a1.5 1.5 0 0 0 0-2.1211 1.5 1.5 0 0 0-1.0606-0.43945z" color="#000000"/>
				<path d="m614.97 191.41a1.5 1.5 0 0 0-2.1172 0.13867l-11.828 13.49a1.5 1.5 0 0 0 0.13868 2.1172 1.5 1.5 0 0 0 2.1172-0.13868l11.828-13.49a1.5 1.5 0 0 0-0.13867-2.1172z" color="#000000"/>
				<path d="m620.87 198.1a1.5 1.5 0 0 0-2.1172 0.13867l-10.893 12.424a1.5 1.5 0 0 0 0.14063 2.1172 1.5 1.5 0 0 0 2.1152-0.13867l10.893-12.424a1.5 1.5 0 0 0-0.13867-2.1172z" color="#000000"/>
				<path d="m626.62 204.81a1.5 1.5 0 0 0-2.1172 0.13868l-10.121 11.543a1.5 1.5 0 0 0 0.14063 2.1172 1.5 1.5 0 0 0 2.1152-0.13867l10.121-11.543a1.5 1.5 0 0 0-0.13868-2.1172z" color="#000000"/>
				<path d="m640.8 246.61a1.5 1.5 0 0 0-2.1211 0.0176l-10.68 10.863a1.5 1.5 0 0 0 0.0176 2.1211 1.5 1.5 0 0 0 2.1211-0.0176l10.68-10.863a1.5 1.5 0 0 0-0.0176-2.1211z" color="#000000"/>
				<path d="m634.86 238.79a1.5 1.5 0 0 0-1.0566 0.44727l-11.512 11.711a1.5 1.5 0 0 0 0.0176 2.123 1.5 1.5 0 0 0 2.1211-0.0195l11.514-11.711a1.5 1.5 0 0 0-0.0195-2.1211 1.5 1.5 0 0 0-1.0644-0.42969z" color="#000000"/>
				<path d="m629.9 231.43a1.5 1.5 0 0 0-1.0566 0.44727l-12.838 13.059a1.5 1.5 0 0 0 0.0176 2.123 1.5 1.5 0 0 0 2.1211-0.0195l12.838-13.059a1.5 1.5 0 0 0-0.0176-2.1211 1.5 1.5 0 0 0-1.0645-0.42969z" color="#000000"/>
			</g>
		</g>
		<path d="m293.61 270.23c-0.21411-0.0292-0.43113 0.0276-0.60293 0.15867-29.744 22.687-53.429 34.645-91.108 39.99-0.44482 0.0633-0.75343 0.47552-0.68967 0.92027 0.0637 0.44381 0.47048 0.66464 0.91815 0.68966 35.2 1.9676 76.147-20.736 91.865-40.307 0.28085-0.3497 0.42597-0.7812 0.15443-1.1382-0.1305-0.1715-0.32383-0.28393-0.53735-0.3131z" color="#000000" fill="#022144"/>
		<path d="m226.07 319.53c-0.28785 0.0408-0.48755 0.30769-0.44628 0.59548 0.0412 0.28717 0.30544 0.41722 0.59412 0.44627 22.755 2.2902 47.057-9.9467 57.268-24.467 0.16694-0.23739 0.26054-0.5478 0.1-0.73646-0.11447-0.13449-0.35259-0.14813-0.52967-0.0135-19.526 13.048-38.047 20.633-56.986 24.175z" color="#000000" fill="#022144"/>
	</g>
	<path d="m103.31 3.275c4.7346 1.5021 8.9862 4.3924 12.462 8.2885h34.849c6.6535 0 12.01 5.2759 12.01 11.83v0.35918c0 6.5538-5.3563 11.831-12.01 11.831h-25.368c0.051 0.86956 0.086 1.7445 0.086 2.6296v3.611c0 0.68742-0.0187 1.3696-0.0496 2.0478h15.867c9.9856 5.354 17.61 21.129 26.144 32.89h11.796c-8.5343-11.761-16.159-27.536-26.144-32.89 11.245 0 20.298-9.053 20.298-20.298 0-11.245-9.053-20.298-20.298-20.298zm-103.06 0 28.44 73.486h10.697l20.585-53.188c2.6265-6.7865 4.6481-12.01 12.469-12.01h22.112c10.47 0 18.899 12.067 18.899 27.057v2.7955c0 14.99-8.429 27.057-18.899 27.057h-22.112l-9.8426 8.2885h33.198c15.719 0 28.373-15.582 28.373-34.938v-3.611c0-19.356-12.654-34.938-28.373-34.938h-23.356c-9.8426 0-16.738 5.1239-19.211 12.01l-19.191 53.453-23.504-65.463z" fill="#ff9500"/>
</svg>
